# xmcd CD database file
#
# Track frame offsets:
#	150
#	21755
#	36535
#	52580
#	66202
#	81165
#	93957
#	108615
#	120445
#	131625
#	144977
#	157930
#	175250
#	189210
#	205287
#	221765
#
# Disc length: 3165 seconds
#
# Revision: 0
# Processed by: cddbd v1.4PL0 Copyright (c) Steve Scherf et al.
# Submitted via: CDex 1.40Beta8
#
DISCID=d80c5b10
DTITLE=Various Artist - 16 Great Country Hits
DYEAR=1900
DGENRE=Country
TTITLE0=Willie Nelson_City of New Orleans
TTITLE1=Rodney Crowell_ I couldn´t leave her if I tried
TTITLE2=Ricky Skaggs_ Love´s gonna get you someday
TTITLE3=Jennings, Nelson, Cash, Kristoferson_ Highwayman
TTITLE4=Sweetharts of the rodeo_ This heart
TTITLE5=Asleep at the wheel_Walk on by
TTITLE6=George Jones_The right left hand
TTITLE7=Roseanne Cash-I don´t want to spoil the party
TTITLE8=Ricky Van Shelton_I´ve cried my last tear for you
TTITLE9=David Allan Coe_Jody like a melody
TTITLE10=Dolly Parton_Time for me to fly
TTITLE11=The Charlie Daniels Band_Mister Dj
TTITLE12=Tammy Wynette_Your love
TTITLE13=The O´Kanes_ Tired of running
TTITLE14=Johnny Cash_Riders in the sky
TTITLE15=Six Gun_Southern style
EXTD=ID3G: 2
EXTT0=
EXTT1=
EXTT2=
EXTT3=
EXTT4=
EXTT5=
EXTT6=
EXTT7=
EXTT8=
EXTT9=
EXTT10=
EXTT11=
EXTT12=
EXTT13=
EXTT14=
EXTT15=
PLAYORDER=
